<svg width="1920" height="654" viewBox="0 0 1920 654" fill="none" xmlns="http://www.w3.org/2000/svg">
<path d="M105.485 109.616C530.16 -95.8644 1487.83 379.666 1918.94 310.053V298.743C1424.69 356.366 533.965 -97.7054 105.485 109.616Z" fill="#96011A"/>
<path d="M192.677 62.2988C604.714 -93.6071 1532.01 347.199 1920 284.548V272.995C1557.86 336.884 615.2 -97.5751 192.677 62.2988Z" fill="#96011A"/>
<path d="M582.879 0.0276457C856.248 0.0256679 1592.2 304.961 1918.12 252.334V242.649C1613.92 296.316 865.057 -3.30743 582.879 0.0276457Z" fill="#96011A"/>
<path d="M856.315 20.0117C1117.78 55.9637 1608.24 271.063 1920.01 224.946V215.262C1629.96 262.419 1126.58 52.6306 856.315 20.0117Z" fill="#96011A"/>
<path d="M1085.87 51.2666C1273.47 63.1072 1690.53 232.393 1918.12 198.727V191.658C1706.39 226.082 1279.9 60.674 1085.87 51.2666Z" fill="#96011A"/>
<path d="M0 216.702V653.533L1918.94 650.066V332.844C1494.4 417.376 335.151 -158.745 0 216.702Z" fill="#C80122"/>
</svg>
